<svg width="1024" height="1024" viewBox="0 0 1024 1024" fill="none" xmlns="http://www.w3.org/2000/svg">
<rect width="1024" height="1024" fill="#FAFAFA"/>
<g filter="url(#filter0_d_1703_2917)">
<path d="M935 533C935 767.721 744.721 958 510 958C275.279 958 85 767.721 85 533C85 298.279 275.279 108 510 108C744.721 108 935 298.279 935 533Z" fill="#5FBF1B"/>
<path d="M920 533C920 759.437 736.437 943 510 943C283.563 943 100 759.437 100 533C100 306.563 283.563 123 510 123C736.437 123 920 306.563 920 533Z" stroke="#FAFAFA" stroke-width="30"/>
</g>
<path d="M501.529 135.137C417.087 137.348 335.511 166.236 268.496 217.659C201.48 269.082 152.463 340.401 128.472 421.394L512 535L501.529 135.137Z" fill="#AC92EB"/>
<path d="M128.472 421.394C104.481 502.387 106.746 588.896 134.943 668.523C163.141 748.149 215.822 816.805 285.437 864.65L512 535L128.472 421.394Z" fill="#4FC1E8"/>
<path d="M285.437 864.65C355.053 912.496 438.028 937.074 522.471 934.863C606.913 932.652 688.488 903.765 755.504 852.341L512 535L285.437 864.65Z" fill="#A0D568"/>
<path d="M755.505 852.341C822.52 800.918 871.537 729.599 895.528 648.606C919.519 567.613 917.254 481.104 889.057 401.477L512 535L755.505 852.341Z" fill="#FFCE54"/>
<path d="M889.057 401.477C860.859 321.851 808.178 253.195 738.563 205.35C668.947 157.504 585.972 132.926 501.529 135.137L512 535L889.057 401.477Z" fill="#ED5564"/>
<circle cx="512" cy="533" r="423.5" stroke="#1E1E1E" stroke-width="3"/>
<circle cx="512" cy="535" r="399" stroke="#1E1E1E" stroke-opacity="0.23" stroke-width="2"/>
<mask id="path-10-inside-1_1703_2917" fill="white">
<path fill-rule="evenodd" clip-rule="evenodd" d="M409.187 503.165H465.626L388.717 396.415C382.261 387.453 384.429 375.15 393.561 368.936L397.108 366.521C406.24 360.307 418.877 362.534 425.334 371.496L507.675 485.787H512.082L594.423 371.496C600.88 362.534 613.517 360.307 622.649 366.521L626.196 368.936C635.328 375.15 637.497 387.453 631.04 396.415L554.131 503.165H615.04C626.085 503.165 635.04 512.119 635.04 523.165V526.609C635.04 537.654 626.085 546.609 615.04 546.609H532.229V577.02H608.335C619.381 577.02 628.335 585.974 628.335 597.02V600.464C628.335 611.509 619.381 620.464 608.335 620.464H532.229V683.007C532.229 694.053 523.275 703.007 512.229 703.007H507.528C496.483 703.007 487.528 694.053 487.528 683.007V620.464H415.892C404.847 620.464 395.892 611.509 395.892 600.464V597.02C395.892 585.974 404.847 577.02 415.892 577.02H487.528V546.609H409.187C398.141 546.609 389.187 537.654 389.187 526.609V523.165C389.187 512.119 398.141 503.165 409.187 503.165Z"/>
</mask>
<path fill-rule="evenodd" clip-rule="evenodd" d="M409.187 503.165H465.626L388.717 396.415C382.261 387.453 384.429 375.15 393.561 368.936L397.108 366.521C406.24 360.307 418.877 362.534 425.334 371.496L507.675 485.787H512.082L594.423 371.496C600.88 362.534 613.517 360.307 622.649 366.521L626.196 368.936C635.328 375.15 637.497 387.453 631.04 396.415L554.131 503.165H615.04C626.085 503.165 635.04 512.119 635.04 523.165V526.609C635.04 537.654 626.085 546.609 615.04 546.609H532.229V577.02H608.335C619.381 577.02 628.335 585.974 628.335 597.02V600.464C628.335 611.509 619.381 620.464 608.335 620.464H532.229V683.007C532.229 694.053 523.275 703.007 512.229 703.007H507.528C496.483 703.007 487.528 694.053 487.528 683.007V620.464H415.892C404.847 620.464 395.892 611.509 395.892 600.464V597.02C395.892 585.974 404.847 577.02 415.892 577.02H487.528V546.609H409.187C398.141 546.609 389.187 537.654 389.187 526.609V523.165C389.187 512.119 398.141 503.165 409.187 503.165Z" fill="#FAFAFA"/>
<path d="M465.626 503.165V506.165H471.485L468.06 501.411L465.626 503.165ZM388.717 396.415L386.283 398.168L386.283 398.168L388.717 396.415ZM393.561 368.936L391.873 366.455L391.873 366.455L393.561 368.936ZM397.108 366.521L398.796 369.001L398.796 369.001L397.108 366.521ZM425.334 371.496L422.9 373.25L422.9 373.25L425.334 371.496ZM507.675 485.787L505.241 487.54L506.139 488.787H507.675V485.787ZM512.082 485.787V488.787H513.618L514.516 487.54L512.082 485.787ZM594.423 371.496L591.989 369.743L591.989 369.743L594.423 371.496ZM622.649 366.521L624.337 364.041L624.337 364.041L622.649 366.521ZM626.196 368.936L624.508 371.416L624.509 371.416L626.196 368.936ZM631.04 396.415L633.474 398.168L633.474 398.168L631.04 396.415ZM554.131 503.165L551.697 501.411L548.272 506.165H554.131V503.165ZM532.229 546.609V543.609H529.229V546.609H532.229ZM532.229 577.02H529.229V580.02H532.229V577.02ZM532.229 620.464V617.464H529.229V620.464H532.229ZM487.528 620.464H490.528V617.464H487.528V620.464ZM487.528 577.02V580.02H490.528V577.02H487.528ZM487.528 546.609H490.528V543.609H487.528V546.609ZM465.626 500.165H409.187V506.165H465.626V500.165ZM386.283 398.168L463.192 504.918L468.06 501.411L391.151 394.661L386.283 398.168ZM391.873 366.455C381.345 373.62 378.84 387.837 386.283 398.168L391.151 394.661C385.682 387.069 387.513 376.68 395.249 371.416L391.873 366.455ZM395.421 364.041L391.873 366.455L395.249 371.416L398.796 369.001L395.421 364.041ZM427.768 369.743C420.361 359.462 405.896 356.912 395.421 364.041L398.796 369.001C406.584 363.702 417.393 365.607 422.9 373.25L427.768 369.743ZM510.109 484.033L427.768 369.743L422.9 373.25L505.241 487.54L510.109 484.033ZM512.082 482.787H507.675V488.787H512.082V482.787ZM591.989 369.743L509.648 484.033L514.516 487.54L596.857 373.25L591.989 369.743ZM624.337 364.041C613.861 356.912 599.396 359.462 591.989 369.743L596.857 373.25C602.364 365.607 613.173 363.702 620.961 369.001L624.337 364.041ZM627.884 366.455L624.337 364.041L620.961 369.001L624.508 371.416L627.884 366.455ZM633.474 398.168C640.918 387.837 638.412 373.62 627.884 366.455L624.509 371.416C632.244 376.68 634.076 387.069 628.606 394.661L633.474 398.168ZM556.565 504.918L633.474 398.168L628.606 394.661L551.697 501.411L556.565 504.918ZM615.04 500.165H554.131V506.165H615.04V500.165ZM638.04 523.165C638.04 510.462 627.742 500.165 615.04 500.165V506.165C624.428 506.165 632.04 513.776 632.04 523.165H638.04ZM638.04 526.609V523.165H632.04V526.609H638.04ZM615.04 549.609C627.742 549.609 638.04 539.311 638.04 526.609H632.04C632.04 535.998 624.428 543.609 615.04 543.609V549.609ZM532.229 549.609H615.04V543.609H532.229V549.609ZM535.229 577.02V546.609H529.229V577.02H535.229ZM608.335 574.02H532.229V580.02H608.335V574.02ZM631.335 597.02C631.335 584.317 621.037 574.02 608.335 574.02V580.02C617.724 580.02 625.335 587.631 625.335 597.02H631.335ZM631.335 600.464V597.02H625.335V600.464H631.335ZM608.335 623.464C621.037 623.464 631.335 613.166 631.335 600.464H625.335C625.335 609.853 617.724 617.464 608.335 617.464V623.464ZM532.229 623.464H608.335V617.464H532.229V623.464ZM535.229 683.007V620.464H529.229V683.007H535.229ZM512.229 706.007C524.932 706.007 535.229 695.71 535.229 683.007H529.229C529.229 692.396 521.618 700.007 512.229 700.007V706.007ZM507.528 706.007H512.229V700.007H507.528V706.007ZM484.528 683.007C484.528 695.71 494.826 706.007 507.528 706.007V700.007C498.139 700.007 490.528 692.396 490.528 683.007H484.528ZM484.528 620.464V683.007H490.528V620.464H484.528ZM415.892 623.464H487.528V617.464H415.892V623.464ZM392.892 600.464C392.892 613.166 403.19 623.464 415.892 623.464V617.464C406.504 617.464 398.892 609.853 398.892 600.464H392.892ZM392.892 597.02V600.464H398.892V597.02H392.892ZM415.892 574.02C403.19 574.02 392.892 584.317 392.892 597.02H398.892C398.892 587.631 406.504 580.02 415.892 580.02V574.02ZM487.528 574.02H415.892V580.02H487.528V574.02ZM484.528 546.609V577.02H490.528V546.609H484.528ZM409.187 549.609H487.528V543.609H409.187V549.609ZM386.187 526.609C386.187 539.311 396.484 549.609 409.187 549.609V543.609C399.798 543.609 392.187 535.998 392.187 526.609H386.187ZM386.187 523.165V526.609H392.187V523.165H386.187ZM409.187 500.165C396.484 500.165 386.187 510.462 386.187 523.165H392.187C392.187 513.776 399.798 506.165 409.187 506.165V500.165Z" fill="#1E1E1E" fill-opacity="0.3" mask="url(#path-10-inside-1_1703_2917)"/>
<g filter="url(#filter1_d_1703_2917)">
<path d="M505.857 188.323C503.857 190.748 500.143 190.748 498.143 188.323L413.485 85.6814C410.795 82.4202 413.115 77.5 417.342 77.5L586.658 77.5C590.885 77.5 593.205 82.4202 590.515 85.6814L505.857 188.323Z" fill="#FAFAFA"/>
<path d="M500.071 186.733L415.414 84.0907C414.069 82.4601 415.229 80 417.342 80L586.658 80C588.771 80 589.931 82.4601 588.586 84.0907L503.929 186.733C502.929 187.945 501.071 187.945 500.071 186.733Z" stroke="#212121" stroke-width="5"/>
</g>
<defs>
<filter id="filter0_d_1703_2917" x="81" y="108" width="858" height="858" filterUnits="userSpaceOnUse" color-interpolation-filters="sRGB">
<feFlood flood-opacity="0" result="BackgroundImageFix"/>
<feColorMatrix in="SourceAlpha" type="matrix" values="0 0 0 0 0 0 0 0 0 0 0 0 0 0 0 0 0 0 127 0" result="hardAlpha"/>
<feOffset dy="4"/>
<feGaussianBlur stdDeviation="2"/>
<feComposite in2="hardAlpha" operator="out"/>
<feColorMatrix type="matrix" values="0 0 0 0 0 0 0 0 0 0 0 0 0 0 0 0 0 0 0.25 0"/>
<feBlend mode="normal" in2="BackgroundImageFix" result="effect1_dropShadow_1703_2917"/>
<feBlend mode="normal" in="SourceGraphic" in2="effect1_dropShadow_1703_2917" result="shape"/>
</filter>
<filter id="filter1_d_1703_2917" x="408.333" y="77.5" width="187.334" height="120.642" filterUnits="userSpaceOnUse" color-interpolation-filters="sRGB">
<feFlood flood-opacity="0" result="BackgroundImageFix"/>
<feColorMatrix in="SourceAlpha" type="matrix" values="0 0 0 0 0 0 0 0 0 0 0 0 0 0 0 0 0 0 127 0" result="hardAlpha"/>
<feOffset dy="4"/>
<feGaussianBlur stdDeviation="2"/>
<feComposite in2="hardAlpha" operator="out"/>
<feColorMatrix type="matrix" values="0 0 0 0 0 0 0 0 0 0 0 0 0 0 0 0 0 0 0.25 0"/>
<feBlend mode="normal" in2="BackgroundImageFix" result="effect1_dropShadow_1703_2917"/>
<feBlend mode="normal" in="SourceGraphic" in2="effect1_dropShadow_1703_2917" result="shape"/>
</filter>
</defs>
</svg>
